<mxGraphModel dx="0" dy="0" grid="1" gridSize="10" guides="1" tooltips="1" connect="1" arrows="1" fold="1" page="0" pageScale="1" background="none" math="0" shadow="0">
  <root>
    <mxCell id="0" />
    <mxCell id="1" parent="0" />
    <mxCell id="node1" parent="1" vertex="1" value="&lt;p style=&quot;margin:0px;margin-top:4px;text-align:center;&quot;&gt;&lt;b&gt;loan&lt;/b&gt;&lt;/p&gt;&lt;hr size=&quot;1&quot;/&gt;&lt;p style=&quot;margin:0 0 0 4px;line-height:1.6;&quot;&gt; customer_id: text&lt;br/&gt; loan_id: text&lt;br/&gt; loan_service: text&lt;br/&gt; loan_type: text&lt;br/&gt; loan_amount: bigint&lt;br/&gt; interest_rate: double precision&lt;br/&gt; term: bigint&lt;br/&gt; created_date: date&lt;br/&gt; start_date: date&lt;br/&gt; end_date: text&lt;br/&gt; status: text&lt;br/&gt; due_principal: double precision&lt;br/&gt; due_interest: double precision&lt;br/&gt; paid_principal: double precision&lt;br/&gt; paid_interest: double precision&lt;br/&gt; undue_principal: double precision&lt;br/&gt; undue_interest: double precision&lt;br/&gt; overdue_principal: double precision&lt;br/&gt; overdue_interest: double precision&lt;br/&gt; to_collect_principal: double precision&lt;br/&gt; to_collect_interest: double precision&lt;br/&gt; interest_on_overdue_loan: double precision&lt;br/&gt; unpaid_principal: double precision&lt;br/&gt; unpaid_interest: double precision&lt;br/&gt; description: text&lt;br/&gt; created_time: date&lt;br/&gt; release_time: text&lt;br/&gt; overdue_date: date&lt;br/&gt; disbursement_date: text&lt;br/&gt; modified_time: text&lt;/p&gt;" style="verticalAlign=top;align=left;overflow=fill;fontSize=14;fontFamily=Helvetica;html=1;rounded=0;shadow=0;comic=0;labelBackgroundColor=none;strokeWidth=1;">
      <mxGeometry x="-157" y="-135" width="315" height="759" as="geometry" />
    </mxCell>
    <mxCell id="node0" parent="1" vertex="1" value="&lt;p style=&quot;margin:0px;margin-top:4px;text-align:center;&quot;&gt;&lt;b&gt;loan_payment&lt;/b&gt;&lt;/p&gt;&lt;hr size=&quot;1&quot;/&gt;&lt;p style=&quot;margin:0 0 0 4px;line-height:1.6;&quot;&gt; scheduled_payment_date: date&lt;br/&gt; payment_amount: double precision&lt;br/&gt; principal_amount: double precision&lt;br/&gt; interest_amount: double precision&lt;br/&gt; paid_amount: double precision&lt;br/&gt; paid_date: date&lt;/p&gt;&lt;hr size=&quot;1&quot;/&gt;&lt;p style=&quot;margin:0 0 0 4px;line-height:1.6;&quot;&gt; loan_payment_id: integer&lt;/p&gt;" style="verticalAlign=top;align=left;overflow=fill;fontSize=14;fontFamily=Helvetica;html=1;rounded=0;shadow=0;comic=0;labelBackgroundColor=none;strokeWidth=1;">
      <mxGeometry x="180" y="140" width="257" height="208" as="geometry" />
    </mxCell>
  </root>
</mxGraphModel>